<svg width="900" height="360" viewBox="0 0 900 360" fill="none" xmlns="http://www.w3.org/2000/svg">
  <title>DomestiQ AI</title>
  <g transform="translate(345 18)">
    <path d="M104 8L186 63H165L165 156H43L43 63H22L104 8Z" fill="#16A6CF"/>
    <path d="M33 62L104 14L175 62" stroke="#16A6CF" stroke-width="13" stroke-linecap="round" stroke-linejoin="round"/>
    <path d="M73 156V104C73 97.3726 78.3726 92 85 92C91.6274 92 97 97.3726 97 104V156" stroke="#0F5B74" stroke-width="10" stroke-linecap="round"/>
    <path d="M111 156V86C111 79.3726 116.373 74 123 74C129.627 74 135 79.3726 135 86V156" stroke="#0F5B74" stroke-width="10" stroke-linecap="round"/>
    <path d="M149 156V125C149 118.373 154.373 113 161 113C167.627 113 173 118.373 173 125V156" stroke="#0F5B74" stroke-width="10" stroke-linecap="round"/>
    <circle cx="85" cy="92" r="10" fill="#0F5B74"/>
    <circle cx="123" cy="74" r="10" fill="#0F5B74"/>
    <circle cx="161" cy="113" r="10" fill="#0F5B74"/>
    <path d="M5 178C51 172 83 170 104 170C126 170 158 172 204 178" stroke="#0F7CA6" stroke-width="5" stroke-linecap="round"/>
  </g>
  <g transform="translate(178 198)">
    <path d="M8 69.2V0H31C51.6 0 63.4 9.8 63.4 34.7C63.4 59.3 51.6 69.2 31 69.2H8ZM26.8 53.9H30C38.1 53.9 43.8 49 43.8 34.7C43.8 20.3 38.1 15.3 30 15.3H26.8V53.9Z" fill="#0898C8"/>
    <path d="M92.1977 70.6C74.4977 70.6 61.8977 58.5 61.8977 40.1C61.8977 21.8 74.4977 9.8 92.1977 9.8C109.898 9.8 122.498 21.8 122.498 40.1C122.498 58.5 109.898 70.6 92.1977 70.6ZM92.1977 55.8C99.0977 55.8 103.398 49.4 103.398 40.1C103.398 30.9 99.0977 24.7 92.1977 24.7C85.2977 24.7 80.9977 30.9 80.9977 40.1C80.9977 49.4 85.2977 55.8 92.1977 55.8Z" fill="#0898C8"/>
    <path d="M127.187 69.2V11.2H142.487L143.787 18.5H144.187C148.887 13.8 154.387 9.8 163.287 9.8C171.987 9.8 177.687 13.7 181.087 20.1C186.487 14.6 192.287 9.8 201.287 9.8C216.187 9.8 223.087 20.4 223.087 36.8V69.2H204.287V39.1C204.287 31.6 202.287 29.2 197.787 29.2C195.087 29.2 192.087 31 188.387 34.7V69.2H169.587V39.1C169.587 31.6 167.587 29.2 163.087 29.2C160.387 29.2 157.387 31 153.687 34.7V69.2H134.887V69.2H127.187Z" fill="#0898C8"/>
    <path d="M258.712 70.6C241.012 70.6 228.412 58.5 228.412 40.1C228.412 21.8 241.012 9.8 258.712 9.8C276.412 9.8 289.012 21.8 289.012 40.1C289.012 58.5 276.412 70.6 258.712 70.6ZM258.712 55.8C265.612 55.8 269.912 49.4 269.912 40.1C269.912 30.9 265.612 24.7 258.712 24.7C251.812 24.7 247.512 30.9 247.512 40.1C247.512 49.4 251.812 55.8 258.712 55.8Z" fill="#0898C8"/>
    <path d="M294.102 69.2V11.2H309.402L310.702 18.2H311.102C316.202 13.7 323.002 9.8 331.102 9.8C345.402 9.8 351.302 20.1 351.302 36.4V69.2H332.502V38.9C332.502 31.5 330.602 29.2 325.802 29.2C321.702 29.2 319.202 31 314.902 34.7V69.2H294.102Z" fill="#0898C8"/>
    <path d="M380.687 70.6C363.287 70.6 350.187 58.6 350.187 40.3C350.187 22 363.287 9.8 381.287 9.8C388.487 9.8 393.887 12.3 398.387 16.1L389.687 28.1C387.087 25.9 384.687 24.7 381.987 24.7C374.087 24.7 369.287 30.9 369.287 40.3C369.287 49.6 374.387 55.8 381.187 55.8C384.887 55.8 388.687 54 391.687 51.6L399.087 63.8C393.287 68.8 386.287 70.6 380.687 70.6Z" fill="#0898C8"/>
    <path d="M407.003 69.2V27.6H397.603V13.6L407.003 12.9V2.6C407.003 -10.8 413.303 -20 426.903 -20C431.703 -20 436.603 -18.9 439.703 -17.7L436.303 -3.8C434.203 -4.5 432.303 -4.9 430.603 -4.9C426.303 -4.9 424.703 -2.5 424.703 2.3V12.9H437.503V27.6H424.703V69.2H407.003Z" fill="#0898C8"/>
    <path d="M445.083 69.2V11.2H462.783V69.2H445.083ZM453.883 3.7C447.783 3.7 443.383 -0.2 443.383 -5.6C443.383 -11 447.783 -14.9 453.883 -14.9C459.983 -14.9 464.383 -11 464.383 -5.6C464.383 -0.2 459.983 3.7 453.883 3.7Z" fill="#0898C8"/>
    <path d="M494.45 69.2C480.65 69.2 474.65 60.6 474.65 46.4V27.6H467.95V14.4L475.65 13.6L477.65 -2.4H492.35V13.6H504.15V27.6H492.35V46.1C492.35 51.7 494.95 54.1 499.05 54.1C500.75 54.1 502.75 53.5 504.05 53L506.95 66.2C503.95 67.2 499.55 69.2 494.45 69.2Z" fill="#0898C8"/>
    <path d="M542.787 95C524.987 95 513.087 88.9 513.087 77.1C513.087 71.8 516.387 67 522.187 63.4V62.8C518.587 60.3 515.887 56.6 515.887 50.6C515.887 44.9 519.687 39.9 523.687 36.9V36.3C518.687 32.8 513.987 25.8 513.987 18.3C513.987 2 527.387 -7.2 542.687 -7.2C546.687 -7.2 550.387 -6.5 553.287 -5.5H574.887V7.5H566.087C567.287 9.4 568.287 13.1 568.287 17C568.287 32.6 556.587 40.9 542.987 40.9C540.987 40.9 538.487 40.5 536.087 39.8C534.487 41.2 533.687 42.3 533.687 44.7C533.687 48.1 536.287 49.9 543.787 49.9H553.287C569.687 49.9 579.087 54.8 579.087 66.9C579.087 80.5 564.987 95 542.787 95ZM542.687 30.1C547.587 30.1 551.087 25.9 551.087 18.3C551.087 10.8 547.587 6.8 542.687 6.8C537.687 6.8 534.187 10.8 534.187 18.3C534.187 25.9 537.687 30.1 542.687 30.1ZM545.687 83C554.787 83 560.887 78.9 560.887 74.3C560.887 70.2 557.187 69.2 550.387 69.2H544.687C540.287 69.2 536.787 68.9 533.887 68.3C531.487 70.3 530.287 72.4 530.287 74.8C530.287 80 536.087 83 545.687 83Z" fill="#0898C8"/>
    <path d="M608.672 70.6C590.972 70.6 578.372 58.5 578.372 40.1C578.372 21.8 590.972 9.8 608.672 9.8C626.372 9.8 638.972 21.8 638.972 40.1C638.972 58.5 626.372 70.6 608.672 70.6ZM608.672 55.8C615.572 55.8 619.872 49.4 619.872 40.1C619.872 30.9 615.572 24.7 608.672 24.7C601.772 24.7 597.472 30.9 597.472 40.1C597.472 49.4 601.772 55.8 608.672 55.8Z" fill="#0898C8"/>
    <path d="M650.42 69.2V11.2H671.22L689.52 44.3H690.12L708.42 11.2H729.22V69.2H712.52V46.2C712.52 39.5 713.92 29.2 714.82 22.6H714.22L705.42 39.4L689.82 66.1H688.92L673.32 39.4L664.72 22.6H664.12C665.02 29.2 666.42 39.5 666.42 46.2V69.2H650.42Z" fill="#FFAE2B"/>
    <path d="M742.654 69.2V11.2H760.354V69.2H742.654ZM751.454 3.7C745.354 3.7 740.954 -0.2 740.954 -5.6C740.954 -11 745.354 -14.9 751.454 -14.9C757.554 -14.9 761.954 -11 761.954 -5.6C761.954 -0.2 757.554 3.7 751.454 3.7Z" fill="#FFAE2B"/>
  </g>
  <g transform="translate(235 310)">
    <path d="M0 11H98" stroke="#6E87A6" stroke-width="3" stroke-linecap="round" opacity="0.75"/>
    <text x="114" y="18" font-family="Arial, Helvetica, sans-serif" font-size="32" font-weight="600" fill="#516984">Smarter Living Starts at Home</text>
    <path d="M576 11H674" stroke="#6E87A6" stroke-width="3" stroke-linecap="round" opacity="0.75"/>
  </g>
</svg>