<svg width="900" height="360" viewBox="0 0 900 360" fill="none" xmlns="http://www.w3.org/2000/svg">
  <title>DomestiQAI</title>
  <g transform="translate(345 18)">
    <path d="M104 8L186 63H165L165 156H43L43 63H22L104 8Z" fill="#16A6CF"/>
    <path d="M33 62L104 14L175 62" stroke="#16A6CF" stroke-width="13" stroke-linecap="round" stroke-linejoin="round"/>
    <path d="M73 156V104C73 97.3726 78.3726 92 85 92C91.6274 92 97 97.3726 97 104V156" stroke="#0F5B74" stroke-width="10" stroke-linecap="round"/>
    <path d="M111 156V86C111 79.3726 116.373 74 123 74C129.627 74 135 79.3726 135 86V156" stroke="#0F5B74" stroke-width="10" stroke-linecap="round"/>
    <path d="M149 156V125C149 118.373 154.373 113 161 113C167.627 113 173 118.373 173 125V156" stroke="#0F5B74" stroke-width="10" stroke-linecap="round"/>
    <circle cx="85" cy="92" r="10" fill="#0F5B74"/>
    <circle cx="123" cy="74" r="10" fill="#0F5B74"/>
    <circle cx="161" cy="113" r="10" fill="#0F5B74"/>
    <path d="M5 178C51 172 83 170 104 170C126 170 158 172 204 178" stroke="#0F7CA6" stroke-width="5" stroke-linecap="round"/>
  </g>
  <g transform="translate(154 214)">
    <text x="0" y="62" font-family="Arial, Helvetica, sans-serif" font-size="72" font-weight="800" letter-spacing="-2" fill="#0898C8">DomestiQ</text>
    <text x="335" y="62" font-family="Arial, Helvetica, sans-serif" font-size="72" font-weight="800" letter-spacing="-2" fill="#FFAE2B">AI</text>
  </g>
  <g transform="translate(235 310)">
    <path d="M0 11H98" stroke="#6E87A6" stroke-width="3" stroke-linecap="round" opacity="0.75"/>
    <text x="114" y="18" font-family="Arial, Helvetica, sans-serif" font-size="32" font-weight="600" fill="#516984">Smarter Living Starts at Home</text>
    <path d="M576 11H674" stroke="#6E87A6" stroke-width="3" stroke-linecap="round" opacity="0.75"/>
  </g>
</svg>