<svg xmlns="http://www.w3.org/2000/svg" width="180" height="180" viewBox="0 0 180 180" fill="none">
  <rect width="180" height="180" rx="44" fill="#F4FBFF"/>
  <rect x="15" y="15" width="150" height="150" rx="36" fill="url(#surface)"/>
  <path d="M50 83L90 55L130 83H118V132H62V83H50Z" fill="#16A6CF"/>
  <path d="M56 83L90 60L124 83" stroke="#16A6CF" stroke-width="8" stroke-linecap="round" stroke-linejoin="round"/>
  <path d="M77 132V105C77 101.686 79.686 99 83 99C86.314 99 89 101.686 89 105V132" stroke="#0F5B74" stroke-width="7" stroke-linecap="round"/>
  <path d="M90 132V95C90 91.686 92.686 89 96 89C99.314 89 102 91.686 102 95V132" stroke="#0F5B74" stroke-width="7" stroke-linecap="round"/>
  <path d="M103 132V113C103 109.686 105.686 107 109 107C112.314 107 115 109.686 115 113V132" stroke="#0F5B74" stroke-width="7" stroke-linecap="round"/>
  <circle cx="83" cy="99" r="6" fill="#0F5B74"/>
  <circle cx="96" cy="89" r="6" fill="#0F5B74"/>
  <circle cx="109" cy="107" r="6" fill="#0F5B74"/>
  <path d="M42 144C62 140 78 138 90 138C102 138 118 140 138 144" stroke="#0F7CA6" stroke-width="4" stroke-linecap="round"/>
  <defs>
    <linearGradient id="surface" x1="26" y1="20" x2="152" y2="160" gradientUnits="userSpaceOnUse">
      <stop stop-color="#E7F8FF"/>
      <stop offset="1" stop-color="#FFF2DD"/>
    </linearGradient>
  </defs>
</svg>