<svg xmlns="http://www.w3.org/2000/svg" width="192" height="192" viewBox="0 0 192 192" fill="none">
  <rect width="192" height="192" rx="46" fill="#F4FBFF"/>
  <rect x="16" y="16" width="160" height="160" rx="40" fill="url(#surface)"/>
  <path d="M54 88L96 58L138 88H127V137H65V88H54Z" fill="#16A6CF"/>
  <path d="M60 88L96 63L132 88" stroke="#16A6CF" stroke-width="9" stroke-linecap="round" stroke-linejoin="round"/>
  <path d="M82 137V109C82 105.134 85.134 102 89 102C92.866 102 96 105.134 96 109V137" stroke="#0F5B74" stroke-width="7" stroke-linecap="round"/>
  <path d="M96 137V98C96 94.134 99.134 91 103 91C106.866 91 110 94.134 110 98V137" stroke="#0F5B74" stroke-width="7" stroke-linecap="round"/>
  <path d="M110 137V118C110 114.134 113.134 111 117 111C120.866 111 124 114.134 124 118V137" stroke="#0F5B74" stroke-width="7" stroke-linecap="round"/>
  <circle cx="89" cy="102" r="7" fill="#0F5B74"/>
  <circle cx="103" cy="91" r="7" fill="#0F5B74"/>
  <circle cx="117" cy="111" r="7" fill="#0F5B74"/>
  <path d="M44 150C66 146 83 144 96 144C109 144 126 146 148 150" stroke="#0F7CA6" stroke-width="4" stroke-linecap="round"/>
  <defs>
    <linearGradient id="surface" x1="28" y1="24" x2="162" y2="170" gradientUnits="userSpaceOnUse">
      <stop stop-color="#E7F8FF"/>
      <stop offset="1" stop-color="#FFF5E5"/>
    </linearGradient>
  </defs>
</svg>