<svg xmlns="http://www.w3.org/2000/svg" width="512" height="512" viewBox="0 0 512 512" fill="none">
  <rect width="512" height="512" rx="128" fill="#15A4CC"/>
  <circle cx="256" cy="256" r="176" fill="rgba(255,255,255,0.12)"/>
  <path d="M148 236L256 160L364 236H336V374H176V236H148Z" fill="#F2FBFF"/>
  <path d="M162 236L256 171L350 236" stroke="#F2FBFF" stroke-width="22" stroke-linecap="round" stroke-linejoin="round"/>
  <path d="M220 374V294C220 284.611 227.611 277 237 277C246.389 277 254 284.611 254 294V374" stroke="#0F5B74" stroke-width="18" stroke-linecap="round"/>
  <path d="M256 374V262C256 252.611 263.611 245 273 245C282.389 245 290 252.611 290 262V374" stroke="#0F5B74" stroke-width="18" stroke-linecap="round"/>
  <path d="M292 374V320C292 310.611 299.611 303 309 303C318.389 303 326 310.611 326 320V374" stroke="#0F5B74" stroke-width="18" stroke-linecap="round"/>
  <circle cx="237" cy="277" r="16" fill="#0F5B74"/>
  <circle cx="273" cy="245" r="16" fill="#0F5B74"/>
  <circle cx="309" cy="303" r="16" fill="#0F5B74"/>
  <path d="M118 410C173 398 219 392 256 392C293 392 339 398 394 410" stroke="#BEEFFF" stroke-width="10" stroke-linecap="round"/>
</svg>